<mxfile host="app.diagrams.net" modified="2022-09-27T23:22:12.392Z" agent="5.0 (Macintosh; Intel Mac OS X 10_15_7) AppleWebKit/537.36 (KHTML, like Gecko) Chrome/105.0.0.0 Safari/537.36" etag="6bsrENiwSlfaZjoYJmHV" version="20.3.0" type="github">
  <diagram id="prtHgNgQTEPvFCAcTncT" name="Page-1">
    <mxGraphModel dx="1186" dy="679" grid="1" gridSize="10" guides="1" tooltips="1" connect="1" arrows="1" fold="1" page="1" pageScale="1" pageWidth="827" pageHeight="1169" math="0" shadow="0">
      <root>
        <mxCell id="0" />
        <mxCell id="1" parent="0" />
        <mxCell id="k70jzczOZa-v7lZ-iGi6-2" value="eVTOL&lt;br&gt;x1" style="rounded=0;whiteSpace=wrap;html=1;fillColor=none;" parent="1" vertex="1">
          <mxGeometry x="340" y="60" width="120" height="60" as="geometry" />
        </mxCell>
        <mxCell id="_tyjS4lRCCQzpeSIgs65-1" value="Wing&lt;br&gt;&lt;br&gt;x4: S_w, b,&amp;nbsp; AR" style="rounded=0;whiteSpace=wrap;html=1;fillColor=none;" vertex="1" parent="1">
          <mxGeometry x="610" y="210" width="120" height="60" as="geometry" />
        </mxCell>
        <mxCell id="_tyjS4lRCCQzpeSIgs65-2" value="Powertrain&lt;br&gt;&lt;br&gt;x2:&amp;nbsp;" style="rounded=0;whiteSpace=wrap;html=1;fillColor=none;" vertex="1" parent="1">
          <mxGeometry x="70" y="210" width="120" height="60" as="geometry" />
        </mxCell>
        <mxCell id="_tyjS4lRCCQzpeSIgs65-8" value="" style="edgeStyle=orthogonalEdgeStyle;rounded=0;orthogonalLoop=1;jettySize=auto;html=1;" edge="1" parent="1" source="_tyjS4lRCCQzpeSIgs65-3" target="k70jzczOZa-v7lZ-iGi6-2">
          <mxGeometry relative="1" as="geometry" />
        </mxCell>
        <mxCell id="_tyjS4lRCCQzpeSIgs65-3" value="Fuselarge&lt;br&gt;&lt;br&gt;x3: L_f, D_f, T_f&lt;span style=&quot;color: rgb(32, 33, 34); font-family: sans-serif; font-size: 12.32px; text-align: left;&quot;&gt;&lt;br&gt;&lt;/span&gt;" style="rounded=0;whiteSpace=wrap;html=1;fillColor=none;" vertex="1" parent="1">
          <mxGeometry x="340" y="210" width="120" height="60" as="geometry" />
        </mxCell>
        <mxCell id="_tyjS4lRCCQzpeSIgs65-6" value="" style="endArrow=classic;html=1;rounded=0;exitX=1;exitY=0.5;exitDx=0;exitDy=0;entryX=0;entryY=0.5;entryDx=0;entryDy=0;" edge="1" parent="1" source="_tyjS4lRCCQzpeSIgs65-3" target="_tyjS4lRCCQzpeSIgs65-1">
          <mxGeometry width="50" height="50" relative="1" as="geometry">
            <mxPoint x="390" y="330" as="sourcePoint" />
            <mxPoint x="440" y="280" as="targetPoint" />
          </mxGeometry>
        </mxCell>
        <mxCell id="_tyjS4lRCCQzpeSIgs65-7" value="x_w" style="edgeLabel;html=1;align=center;verticalAlign=middle;resizable=0;points=[];" vertex="1" connectable="0" parent="_tyjS4lRCCQzpeSIgs65-6">
          <mxGeometry x="0.1733" y="-1" relative="1" as="geometry">
            <mxPoint x="-18" y="-11" as="offset" />
          </mxGeometry>
        </mxCell>
        <mxCell id="_tyjS4lRCCQzpeSIgs65-9" value="Dp_f&lt;br&gt;W_f" style="text;html=1;align=center;verticalAlign=middle;resizable=0;points=[];autosize=1;strokeColor=none;fillColor=none;" vertex="1" parent="1">
          <mxGeometry x="389" y="130" width="50" height="40" as="geometry" />
        </mxCell>
        <mxCell id="_tyjS4lRCCQzpeSIgs65-10" value="" style="endArrow=classic;html=1;rounded=0;exitX=0.5;exitY=0;exitDx=0;exitDy=0;entryX=0.85;entryY=1.025;entryDx=0;entryDy=0;entryPerimeter=0;" edge="1" parent="1" source="_tyjS4lRCCQzpeSIgs65-1" target="k70jzczOZa-v7lZ-iGi6-2">
          <mxGeometry width="50" height="50" relative="1" as="geometry">
            <mxPoint x="390" y="320" as="sourcePoint" />
            <mxPoint x="440" y="270" as="targetPoint" />
          </mxGeometry>
        </mxCell>
        <mxCell id="_tyjS4lRCCQzpeSIgs65-11" value="L&lt;br&gt;Dp_w&lt;br&gt;W_w" style="edgeLabel;html=1;align=center;verticalAlign=middle;resizable=0;points=[];" vertex="1" connectable="0" parent="_tyjS4lRCCQzpeSIgs65-10">
          <mxGeometry x="0.4652" y="-3" relative="1" as="geometry">
            <mxPoint x="26" y="-12" as="offset" />
          </mxGeometry>
        </mxCell>
        <mxCell id="_tyjS4lRCCQzpeSIgs65-12" value="" style="endArrow=classic;startArrow=classic;html=1;rounded=0;exitX=0.5;exitY=1;exitDx=0;exitDy=0;entryX=0.5;entryY=1;entryDx=0;entryDy=0;" edge="1" parent="1" source="_tyjS4lRCCQzpeSIgs65-2" target="_tyjS4lRCCQzpeSIgs65-3">
          <mxGeometry width="50" height="50" relative="1" as="geometry">
            <mxPoint x="390" y="310" as="sourcePoint" />
            <mxPoint x="440" y="260" as="targetPoint" />
            <Array as="points">
              <mxPoint x="130" y="290" />
              <mxPoint x="400" y="290" />
            </Array>
          </mxGeometry>
        </mxCell>
        <mxCell id="_tyjS4lRCCQzpeSIgs65-13" value="V_B&lt;br&gt;" style="edgeLabel;html=1;align=center;verticalAlign=middle;resizable=0;points=[];" vertex="1" connectable="0" parent="_tyjS4lRCCQzpeSIgs65-12">
          <mxGeometry x="0.1429" y="3" relative="1" as="geometry">
            <mxPoint x="-10" y="13" as="offset" />
          </mxGeometry>
        </mxCell>
        <mxCell id="_tyjS4lRCCQzpeSIgs65-15" value="" style="endArrow=classic;startArrow=classic;html=1;rounded=0;exitX=0.25;exitY=1;exitDx=0;exitDy=0;entryX=0.25;entryY=1;entryDx=0;entryDy=0;" edge="1" parent="1" source="_tyjS4lRCCQzpeSIgs65-2" target="_tyjS4lRCCQzpeSIgs65-1">
          <mxGeometry width="50" height="50" relative="1" as="geometry">
            <mxPoint x="390" y="300" as="sourcePoint" />
            <mxPoint x="440" y="250" as="targetPoint" />
            <Array as="points">
              <mxPoint x="100" y="340" />
              <mxPoint x="640" y="340" />
            </Array>
          </mxGeometry>
        </mxCell>
        <mxCell id="_tyjS4lRCCQzpeSIgs65-16" value="n_r, n_b, r_b" style="text;html=1;align=center;verticalAlign=middle;resizable=0;points=[];autosize=1;strokeColor=none;fillColor=none;" vertex="1" parent="1">
          <mxGeometry x="345" y="335" width="90" height="30" as="geometry" />
        </mxCell>
        <mxCell id="_tyjS4lRCCQzpeSIgs65-17" value="" style="endArrow=classic;html=1;rounded=0;exitX=0.5;exitY=0;exitDx=0;exitDy=0;entryX=0;entryY=0.5;entryDx=0;entryDy=0;" edge="1" parent="1" source="_tyjS4lRCCQzpeSIgs65-2" target="k70jzczOZa-v7lZ-iGi6-2">
          <mxGeometry width="50" height="50" relative="1" as="geometry">
            <mxPoint x="390" y="300" as="sourcePoint" />
            <mxPoint x="440" y="250" as="targetPoint" />
          </mxGeometry>
        </mxCell>
        <mxCell id="_tyjS4lRCCQzpeSIgs65-18" value="T,&lt;br&gt;Dp_b," style="text;html=1;align=center;verticalAlign=middle;resizable=0;points=[];autosize=1;strokeColor=none;fillColor=none;" vertex="1" parent="1">
          <mxGeometry x="195" y="95" width="60" height="40" as="geometry" />
        </mxCell>
      </root>
    </mxGraphModel>
  </diagram>
</mxfile>
